<svg width="33" height="33" viewBox="0 0 33 33" fill="none" xmlns="http://www.w3.org/2000/svg">
<g clip-path="url(#clip0)">
<path d="M32.4085 10.0153C31.6081 9.21501 30.3064 9.22838 29.5227 10.045L25.2329 14.5153L14.7641 11.0508L12.5665 13.2484L21.2926 18.6212L16.8772 23.2222L14.0456 22.7573L12.0593 24.7436L16.2221 26.2017L17.6802 30.3645L19.6665 28.3782L19.2016 25.5466L23.8026 21.1313L29.1754 29.8573L31.373 27.6597L27.9086 17.1909L32.3787 12.9011C33.1954 12.1174 33.2088 10.8157 32.4085 10.0153Z" fill="#DFEAEF"/>
<path d="M26.4085 8.01534C25.6081 7.21501 24.3064 7.22838 23.5227 8.04503L19.2329 12.5153L8.76408 9.05076L6.56648 11.2484L15.2926 16.6212L10.8772 21.2222L8.04563 20.7573L6.05932 22.7436L10.2221 24.2017L11.6802 28.3645L13.6665 26.3782L13.2016 23.5466L17.8026 19.1313L23.1754 27.8573L25.373 25.6597L21.9086 15.1909L26.3787 10.9011C27.1954 10.1174 27.2088 8.81571 26.4085 8.01534Z" fill="#BED3DD"/>
<path d="M20.3491 5.59163C19.5488 4.7913 18.2471 4.80468 17.4634 5.62132L13.1735 10.0916L2.70475 6.62705L0.507158 8.82468L9.23323 14.1975L4.81784 18.7985L1.9863 18.3336L-2.67862e-06 20.3199L4.16279 21.778L5.62083 25.9408L7.60713 23.9545L7.14226 21.1229L11.7433 16.7076L17.1161 25.4336L19.3137 23.236L15.8492 12.7672L20.3194 8.47741C21.1361 7.69368 21.1495 6.392 20.3491 5.59163Z" fill="#6D8494"/>
</g>
<defs>
<clipPath id="clip0">
<rect width="33" height="33" fill="white" transform="translate(33 33) rotate(-180)"/>
</clipPath>
</defs>
</svg>
